<?xml version="1.0" encoding="UTF-8"?>
<svg version="1.1" xmlns="http://www.w3.org/2000/svg" width="512" height="512">
<path d="M0 0 C0.82194568 0.08082868 1.64389135 0.16165736 2.49074447 0.24493539 C16.45402709 1.71576095 28.6304294 4.88817954 38.52458191 15.53651428 C47.67716493 27.40768632 48.7998366 39.55790078 48.91130066 53.97010803 C48.93003611 55.50568149 48.94961125 57.04124491 48.96998596 58.57679749 C49.02106241 62.59453889 49.06081822 66.61231358 49.09812927 70.63020325 C49.13832349 74.73968067 49.18934507 78.84902255 49.23942566 82.95838928 C49.33589454 91.00386921 49.42039105 99.04941686 49.49723816 107.09510803 C51.5745225 105.50130517 53.65126546 103.90680525 55.72770691 102.31190491 C56.60356445 101.64007172 56.60356445 101.64007172 57.49711609 100.95466614 C61.89370765 97.57641983 66.21789203 94.1207868 70.49723816 90.59510803 C75.29755351 86.66726255 80.12720996 82.79323162 85.05973816 79.03260803 C89.73406628 75.4662688 94.35052191 71.83897954 98.93473816 68.15760803 C130.82470498 42.55423808 130.82470498 42.55423808 139.11833191 42.78651428 C143.05869354 43.29766136 146.46282549 44.50253704 149.49723816 47.09510803 C154.19481243 53.42773555 154.06299844 59.03260526 154.00517273 66.74124146 C154.01141269 68.01705737 154.01765265 69.29287329 154.02408171 70.60735029 C154.04074617 74.1373863 154.03254216 77.66698854 154.02013683 81.1970259 C154.01107681 85.00826208 154.02506071 88.81942431 154.03605652 92.63064575 C154.0538357 100.09209476 154.05000462 107.55338275 154.03840595 115.01483805 C154.02937021 121.07870671 154.02814824 127.14253027 154.03250122 133.20640373 C154.03311415 134.06963567 154.03372708 134.93286761 154.03435859 135.8222581 C154.0356375 137.57591698 154.03693435 139.32957586 154.03824896 141.08323472 C154.04965282 157.5238915 154.03654375 173.96445903 154.01504749 190.40510117 C153.9971735 204.51218264 154.00028346 218.61913245 154.01872253 232.72621155 C154.04012721 249.10982555 154.04855754 265.49336137 154.03627348 281.8769874 C154.03499928 283.62386762 154.0337418 285.37074785 154.03250122 287.1176281 C154.03188412 287.97712131 154.03126702 288.83661453 154.03063121 289.722153 C154.02717734 295.77930662 154.0330074 301.83641065 154.04241943 307.89355659 C154.05363618 315.27432329 154.05060613 322.65491982 154.02929646 330.03566701 C154.01878207 333.80152475 154.01467064 337.56709875 154.02789307 341.33295441 C154.04200622 345.41420287 154.02515826 349.49473451 154.00517273 353.57595825 C154.01409562 354.76768223 154.0230185 355.95940621 154.03221178 357.18724304 C153.97244194 363.45846297 153.77601636 367.3639372 149.49723816 372.09510803 C145.48164416 375.55038659 142.04820928 376.6418503 136.93864441 377.30995178 C130.44346598 376.73837608 125.61187429 372.96057583 120.74723816 368.97010803 C120.137995 368.48074768 119.52875183 367.99138733 118.90104675 367.48719788 C117.09295192 366.03134775 115.29400137 364.56490749 113.49723816 363.09510803 C112.57684753 362.34745178 111.65645691 361.59979553 110.70817566 360.82948303 C108.9566033 359.400708 107.20798789 357.96830164 105.46208191 356.53260803 C96.19814768 348.91640914 86.88946856 341.36267905 77.43766785 333.98060608 C73.89716354 331.21072385 70.40232108 328.39386504 66.93473816 325.53260803 C62.90388365 322.2093631 58.80486669 318.99271379 54.65739441 315.81776428 C54.06188782 315.36083191 53.46638123 314.90389954 52.85282898 314.43312073 C51.40153375 313.31970858 49.94946671 312.20730258 48.49723816 311.09510803 C48.50612061 312.03090195 48.51500305 312.96669586 48.52415466 313.93084717 C48.60565587 322.80056337 48.66540124 331.67020244 48.70448685 340.54020977 C48.72525754 345.09911537 48.7533799 349.65771586 48.79899597 354.21644592 C48.8428329 358.62555706 48.8664541 363.0343769 48.87674713 367.44368935 C48.88407126 369.11601654 48.89837115 370.78832993 48.92015839 372.46053123 C49.09473299 386.42989918 47.62460402 398.84612686 38.49723816 410.09510803 C37.99579285 410.72030334 37.49434753 411.34549866 36.97770691 411.98963928 C29.16070253 420.71957848 17.8889749 424.58724533 6.43311632 425.28054678 C2.91800897 425.3548002 -0.59205755 425.36650196 -4.10794067 425.35580444 C-5.46436767 425.35883012 -6.82079296 425.36272169 -8.17721528 425.36739701 C-11.88067137 425.37763218 -15.58403016 425.37550669 -19.28749406 425.37121642 C-23.29102316 425.36874099 -27.29452933 425.37777348 -31.29804993 425.38525391 C-39.13237218 425.39798053 -46.96666013 425.39979712 -54.80099098 425.39745364 C-61.17173577 425.39566796 -67.54247018 425.39742548 -73.91321373 425.40167809 C-75.27519206 425.40257087 -75.27519206 425.40257087 -76.6646851 425.40348169 C-78.50948825 425.40469349 -80.3542914 425.40590762 -82.19909456 425.40712406 C-99.48643329 425.41799186 -116.77375251 425.41584078 -134.06109234 425.40973922 C-149.85912279 425.40457134 -165.65709156 425.41582347 -181.45510981 425.43483744 C-197.69490321 425.45423255 -213.93466746 425.46246886 -230.17447251 425.45871419 C-239.2844907 425.45680461 -248.39445639 425.45926593 -257.5044651 425.47342873 C-265.260417 425.48536487 -273.01628411 425.48672245 -280.77223722 425.47463856 C-284.7252675 425.46876539 -288.67814285 425.46760691 -292.63116264 425.47964096 C-296.25775478 425.49055247 -299.88406361 425.48733456 -303.51064279 425.47337928 C-305.42722467 425.46951032 -307.34381939 425.48023629 -309.26037103 425.49167615 C-321.72718972 425.41460785 -332.21517416 423.32160559 -342.50276184 416.09510803 C-343.38963684 415.51760803 -344.27651184 414.94010803 -345.19026184 414.34510803 C-354.68773439 405.10432393 -358.76241268 393.62004358 -359.83837891 380.64241028 C-359.93162598 379.64877749 -360.02487306 378.65514471 -360.12094581 377.63140184 C-360.42330102 374.32865802 -360.69998459 371.02448547 -360.97224426 367.71913147 C-361.07166097 366.55373962 -361.17107767 365.38834778 -361.273507 364.18764102 C-367.62328941 289.22374083 -373.39197447 209.97908432 -325.28010559 64.17201233 C-320.45267443 58.58960042 -315.32848186 53.32759971 -310.06526184 48.15760803 C-309.41918221 47.51861336 -308.77310257 46.87961869 -308.10744476 46.22126055 C-246.07465579 -14.61497105 -155.6731607 -9.9039391 0 0 Z M-230.50276184 130.09510803 C-230.50276184 184.87510803 -230.50276184 239.65510803 -230.50276184 296.09510803 C-179.02276184 296.09510803 -127.54276184 296.09510803 -74.50276184 296.09510803 C-74.50276184 241.31510803 -74.50276184 186.53510803 -74.50276184 130.09510803 C-125.98276184 130.09510803 -177.46276184 130.09510803 -230.50276184 130.09510803 Z " fill="#00AC3B" transform="translate(358.5027618408203,42.90489196777344)"/>
<path d="M0 0 C2.08426364 0.07969998 4.16860652 0.15697995 6.25297481 0.23388982 C35.59369111 1.3278055 64.87895782 3.09435903 94.11785966 5.80634427 C95.14687461 5.90168911 96.17588956 5.99703394 97.23608679 6.09526801 C100.11889023 6.36695409 103.00050653 6.64838003 105.88182145 6.93538785 C106.70513164 7.01484688 107.52844183 7.09430591 108.37670082 7.17617279 C122.34386597 8.62316489 134.52709682 11.81160264 144.41986161 22.45844388 C156.5311115 38.16709472 155.11724536 56.91533511 155.36737138 75.66816068 C155.41637252 79.01917248 155.50682491 82.36511898 155.63397294 85.71405911 C156.72143416 115.04547036 156.72143416 115.04547036 151.17132646 122.02533841 C148.16650243 124.94420632 144.93500389 127.09734122 141.2252205 129.02039456 C138.49085569 130.50737105 136.23813902 132.48740444 133.89251786 134.51703763 C133.02368974 135.22086576 132.15486161 135.92469388 131.25970536 136.64985013 C127.13808073 140.05271734 123.11521706 143.56562462 119.0844124 147.0751431 C113.42986908 151.99581413 107.717797 156.84484862 101.9852913 161.67426419 C99.28436984 163.95125194 96.58871479 166.23445953 93.89251786 168.51703763 C90.65552792 171.25685078 87.4179825 173.99599315 84.17767411 176.73188138 C83.1033806 177.63934496 82.02916199 178.54689723 80.95501786 179.45453763 C80.42279619 179.90425931 79.89057451 180.35398099 79.3422249 180.8173306 C75.9006997 183.72954942 72.4759813 186.66060071 69.05853349 189.60102201 C63.54743372 194.34285157 57.98606211 199.00169557 52.33392411 203.57563138 C50.01908906 205.49697522 47.74398731 207.44452563 45.48236161 209.42719388 C44.80552324 210.0202432 44.12868486 210.61329251 43.43133622 211.22431302 C42.09386243 212.40034823 40.75990671 213.58039915 39.42987138 214.76484036 C38.81941972 215.30181546 38.20896806 215.83879056 37.58001786 216.39203763 C37.03732255 216.87414701 36.49462724 217.35625638 35.93548661 217.85297513 C34.39251786 219.01703763 34.39251786 219.01703763 31.39251786 220.01703763 C31.39251786 192.62703763 31.39251786 165.23703763 31.39251786 137.01703763 C-62.32748214 137.01703763 -156.04748214 137.01703763 -252.60748214 137.01703763 C-240.42639728 112.65486791 -220.74737448 90.71771593 -203.04498214 70.26703763 C-202.40692499 69.52661395 -201.76886785 68.78619026 -201.11147565 68.0233295 C-144.56623054 2.68321348 -81.30256887 -3.11566031 0 0 Z " fill="#FEB900" transform="translate(252.60748213529587,35.98296236991882)"/>
<path d="M0 0 C42.24 0 84.48 0 128 0 C128 97.35 128 194.7 128 295 C28.81233244 295 28.81233244 295 16 286 C15.113125 285.4225 14.22625 284.845 13.3125 284.25 C5.49292921 276.64176896 0.01934149 266.59774872 -0.49219131 255.57034016 C-0.50873301 253.63650426 -0.50392723 251.70240193 -0.48101807 249.76863098 C-0.48443577 248.69342514 -0.48785347 247.6182193 -0.49137473 246.51043147 C-0.49791982 242.93742131 -0.47603266 239.36517631 -0.45410156 235.79223633 C-0.45297236 233.21921812 -0.45360836 230.64619862 -0.45587158 228.07318115 C-0.4579609 222.54898595 -0.44549607 217.02498089 -0.42292023 211.50083351 C-0.39030156 203.51404642 -0.37998318 195.52735053 -0.37496826 187.54050406 C-0.36623101 174.57992921 -0.33965824 161.61945553 -0.30175781 148.65893555 C-0.26499695 136.07495621 -0.23675109 123.49100457 -0.21972656 110.90698242 C-0.21865457 110.1223621 -0.21758258 109.33774179 -0.21647811 108.5293451 C-0.20815958 102.39237182 -0.20033218 96.25539794 -0.19265985 90.11842382 C-0.15497944 60.07885634 -0.0744936 30.03954233 0 0 Z " fill="#0084FF" transform="translate(0,173)"/>
<path d="M0 0 C42.24 0 84.48 0 128 0 C128 42.57 128 85.14 128 129 C113.583125 129.061875 99.16625 129.12375 84.3125 129.1875 C79.78442627 129.21481201 75.25635254 129.24212402 70.59106445 129.27026367 C65.00036621 129.28381348 65.00036621 129.28381348 62.3712616 129.28633118 C60.56097695 129.29089479 58.7507006 129.30135492 56.94047546 129.31672668 C41.78502932 129.43882717 28.84677348 129.02419305 16 120 C14.6696875 119.13375 14.6696875 119.13375 13.3125 118.25 C4.65014514 109.82176283 -0.08015495 99.81822099 -0.42442417 87.75972843 C-0.47741063 82.88695485 -0.44191817 78.01715973 -0.390625 73.14453125 C-0.38473342 71.26933264 -0.38065915 69.39412742 -0.37841797 67.5189209 C-0.3575674 60.61667936 -0.3017224 53.71457924 -0.25 46.8125 C-0.1675 31.364375 -0.085 15.91625 0 0 Z " fill="#0066DD" transform="translate(0,339)"/>
<path d="M0 0 C0 65.01 0 130.02 0 197 C-4.98453433 194.15169467 -8.92999099 191.58802925 -13.125 187.875 C-17.46869128 184.11638763 -21.86583777 180.47825674 -26.4375 177 C-26.97213867 176.59297852 -27.50677734 176.18595703 -28.05761719 175.76660156 C-29.15043568 174.93506663 -30.24337267 174.10368743 -31.33642578 173.27246094 C-39.78948934 166.8067481 -48.0892582 160.14001017 -56.3918457 153.4831543 C-62.31871697 148.73505738 -68.28784633 144.04200303 -74.26611328 139.35888672 C-77.76446446 136.6171488 -81.2579795 133.86925044 -84.75244141 131.12255859 C-87.65502423 128.84143761 -90.55868273 126.56171737 -93.46484375 124.28515625 C-94.62248557 123.37771863 -95.78003775 122.47016665 -96.9375 121.5625 C-97.5037207 121.1185791 -98.06994141 120.6746582 -98.65332031 120.21728516 C-101.83111832 117.72069962 -104.99437212 115.20717219 -108.14453125 112.67578125 C-109.17235718 111.85001587 -109.17235718 111.85001587 -110.22094727 111.00756836 C-111.54965209 109.93849735 -112.87701693 108.86775828 -114.20288086 107.79516602 C-117.43331949 105.14564076 -117.43331949 105.14564076 -121 103 C-121 102.34 -121 101.68 -121 101 C-119.51261765 99.64617851 -117.95569449 98.36860114 -116.375 97.125 C-111.88680667 93.53444534 -107.47735345 89.87895027 -103.125 86.125 C-98.07096422 81.77425433 -92.99612889 77.45005873 -87.89941406 73.14941406 C-83.87178114 69.74705344 -79.87125582 66.31411954 -75.875 62.875 C-71.8137519 59.38180518 -67.72481221 55.93551449 -63.5625 52.5625 C-58.45692535 48.41939009 -53.50199947 44.1176955 -48.54711914 39.79711914 C-44.91262149 36.63534162 -41.24479157 33.53149794 -37.5 30.5 C-33.13054571 26.96035306 -28.86602469 23.31628213 -24.625 19.625 C-19.68826096 15.32837211 -14.73999539 11.04725285 -9.75 6.8125 C-9.2132666 6.35504395 -8.6765332 5.89758789 -8.12353516 5.42626953 C-1.71330208 0 -1.71330208 0 0 0 Z " fill="#00831E" transform="translate(406,154)"/>
<path d="M0 0 C0 42.57 0 85.14 0 129 C-42.24 129 -84.48 129 -128 129 C-126.00038429 125.00076858 -124.15410636 122.90501009 -121.02073669 119.77349854 C-120.50928937 119.25963679 -119.99784204 118.74577505 -119.4708963 118.21634173 C-117.75672404 116.49653578 -116.0354994 114.78396849 -114.31420898 113.07128906 C-113.08360251 111.83960966 -111.85342912 110.60749743 -110.62365723 109.37498474 C-107.28334446 106.02982353 -103.93681338 102.69094736 -100.58900714 99.3532877 C-97.09081132 95.86386813 -93.59788123 92.36918495 -90.10426331 88.87518311 C-84.23901018 83.01086654 -78.369896 77.1504369 -72.49829102 71.29248047 C-65.70004613 64.5099793 -58.90706038 57.72224731 -52.11704963 50.93150353 C-45.59371802 44.40756269 -39.0675391 37.8864784 -32.53975105 31.36699677 C-29.75707608 28.58786147 -26.97526031 25.80787024 -24.19408989 23.02722931 C-20.92398238 19.75812255 -17.65134999 16.49156465 -14.37670135 13.22700691 C-13.17166898 12.02490768 -11.967494 10.82194829 -10.76421547 9.61809349 C-9.12920222 7.98259335 -7.49117263 6.35017785 -5.85227966 4.71856689 C-4.93400611 3.80196918 -4.01573256 2.88537148 -3.06963253 1.94099808 C-1 0 -1 0 0 0 Z " fill="#FE2820" transform="translate(128,44)"/>
</svg>
