<?xml version="1.0" encoding="UTF-8"?>
<svg version="1.1" xmlns="http://www.w3.org/2000/svg" width="128" height="128">
<path d="M0 0 C42.24 0 84.48 0 128 0 C128 42.24 128 84.48 128 128 C85.76 128 43.52 128 0 128 C0 85.76 0 43.52 0 0 Z " fill="#0A2136" transform="translate(0,0)"/>
<path d="M0 0 C5.28 0 10.56 0 16 0 C16 2.31 16 4.62 16 7 C13.36 7 10.72 7 8 7 C8 22.84 8 38.68 8 55 C10.64 55 13.28 55 16 55 C16 57.31 16 59.62 16 62 C10.72 62 5.44 62 0 62 C0 41.54 0 21.08 0 0 Z " fill="#F4F4F5" transform="translate(78,33)"/>
<path d="M0 0 C5.28 0 10.56 0 16 0 C16 20.46 16 40.92 16 62 C10.72 62 5.44 62 0 62 C0 59.69 0 57.38 0 55 C2.64 55 5.28 55 8 55 C8 39.16 8 23.32 8 7 C5.36 7 2.72 7 0 7 C0 4.69 0 2.38 0 0 Z " fill="#F4F4F5" transform="translate(34,33)"/>
</svg>
